<svg width="117" height="26" viewBox="0 0 117 26" fill="none" xmlns="http://www.w3.org/2000/svg">
<path d="M0.925781 23V21.0449L2.94434 20.6641V6.86426L0.925781 6.4834V4.51562H8.14941V6.4834L6.14355 6.86426V20.6641L8.14941 21.0449V23H0.925781ZM9.83789 23V21.0449L11.8564 20.6641V6.86426L9.83789 6.4834V4.51562H17.0615V6.4834L15.0557 6.86426V20.6641L17.0615 21.0449V23H9.83789Z" fill="white"/>
<path d="M25.8437 20V10.08H28.3237V11.38H28.6837C28.8437 11.0333 29.1437 10.7067 29.5837 10.4C30.0237 10.08 30.6904 9.92 31.5837 9.92C32.3571 9.92 33.0304 10.1 33.6037 10.46C34.1904 10.8067 34.6437 11.2933 34.9637 11.92C35.2837 12.5333 35.4437 13.2533 35.4437 14.08V20H32.9237V14.28C32.9237 13.5333 32.7371 12.9733 32.3637 12.6C32.0037 12.2267 31.4837 12.04 30.8037 12.04C30.0304 12.04 29.4304 12.3 29.0037 12.82C28.5771 13.3267 28.3637 14.04 28.3637 14.96V20H25.8437ZM41.3917 20.16C40.6184 20.16 39.9384 19.9867 39.3517 19.64C38.7784 19.28 38.3317 18.7867 38.0117 18.16C37.6917 17.5333 37.5317 16.8133 37.5317 16V10.08H40.0517V15.8C40.0517 16.5467 40.2317 17.1067 40.5917 17.48C40.9651 17.8533 41.4917 18.04 42.1717 18.04C42.9451 18.04 43.5451 17.7867 43.9717 17.28C44.3984 16.76 44.6117 16.04 44.6117 15.12V10.08H47.1317V20H44.6517V18.7H44.2917C44.1317 19.0333 43.8317 19.36 43.3917 19.68C42.9517 20 42.2851 20.16 41.3917 20.16ZM49.5359 20V10.08H52.0159V11.16H52.3759C52.5493 10.8267 52.8359 10.54 53.2359 10.3C53.6359 10.0467 54.1626 9.92 54.8159 9.92C55.5226 9.92 56.0893 10.06 56.5159 10.34C56.9426 10.6067 57.2693 10.96 57.4959 11.4H57.8559C58.0826 10.9733 58.4026 10.62 58.8159 10.34C59.2293 10.06 59.8159 9.92 60.5759 9.92C61.1893 9.92 61.7426 10.0533 62.2359 10.32C62.7426 10.5733 63.1426 10.9667 63.4359 11.5C63.7426 12.02 63.8959 12.68 63.8959 13.48V20H61.3759V13.66C61.3759 13.1133 61.2359 12.7067 60.9559 12.44C60.6759 12.16 60.2826 12.02 59.7759 12.02C59.2026 12.02 58.7559 12.2067 58.4359 12.58C58.1293 12.94 57.9759 13.46 57.9759 14.14V20H55.4559V13.66C55.4559 13.1133 55.3159 12.7067 55.0359 12.44C54.7559 12.16 54.3626 12.02 53.8559 12.02C53.2826 12.02 52.8359 12.2067 52.5159 12.58C52.2093 12.94 52.0559 13.46 52.0559 14.14V20H49.5359ZM70.7262 20.28C69.7396 20.28 68.8662 20.0733 68.1062 19.66C67.3596 19.2333 66.7729 18.64 66.3462 17.88C65.9329 17.1067 65.7262 16.2 65.7262 15.16V14.92C65.7262 13.88 65.9329 12.98 66.3462 12.22C66.7596 11.4467 67.3396 10.8533 68.0862 10.44C68.8329 10.0133 69.6996 9.8 70.6862 9.8C71.6596 9.8 72.5062 10.02 73.2262 10.46C73.9462 10.8867 74.5062 11.4867 74.9062 12.26C75.3062 13.02 75.5062 13.9067 75.5062 14.92V15.78H68.2862C68.3129 16.46 68.5662 17.0133 69.0462 17.44C69.5262 17.8667 70.1129 18.08 70.8062 18.08C71.5129 18.08 72.0329 17.9267 72.3662 17.62C72.6996 17.3133 72.9529 16.9733 73.1262 16.6L75.1862 17.68C74.9996 18.0267 74.7262 18.4067 74.3662 18.82C74.0196 19.22 73.5529 19.5667 72.9662 19.86C72.3796 20.14 71.6329 20.28 70.7262 20.28ZM68.3062 13.9H72.9462C72.8929 13.3267 72.6596 12.8667 72.2462 12.52C71.8462 12.1733 71.3196 12 70.6662 12C69.9862 12 69.4462 12.1733 69.0462 12.52C68.6462 12.8667 68.3996 13.3267 68.3062 13.9ZM77.3492 20V10.08H79.8292V11.2H80.1892C80.3359 10.8 80.5759 10.5067 80.9092 10.32C81.2559 10.1333 81.6559 10.04 82.1092 10.04H83.3092V12.28H82.0692C81.4292 12.28 80.9026 12.4533 80.4892 12.8C80.0759 13.1333 79.8692 13.6533 79.8692 14.36V20H77.3492ZM87.7245 20.28C87.0179 20.28 86.3845 20.16 85.8245 19.92C85.2645 19.6667 84.8179 19.3067 84.4845 18.84C84.1645 18.36 84.0045 17.78 84.0045 17.1C84.0045 16.42 84.1645 15.8533 84.4845 15.4C84.8179 14.9333 85.2712 14.5867 85.8445 14.36C86.4312 14.12 87.0979 14 87.8445 14H90.5645V13.44C90.5645 12.9733 90.4179 12.5933 90.1245 12.3C89.8312 11.9933 89.3645 11.84 88.7245 11.84C88.0979 11.84 87.6312 11.9867 87.3245 12.28C87.0179 12.56 86.8179 12.9267 86.7245 13.38L84.4045 12.6C84.5645 12.0933 84.8179 11.6333 85.1645 11.22C85.5245 10.7933 85.9979 10.4533 86.5845 10.2C87.1845 9.93333 87.9112 9.8 88.7645 9.8C90.0712 9.8 91.1045 10.1267 91.8645 10.78C92.6245 11.4333 93.0045 12.38 93.0045 13.62V17.32C93.0045 17.72 93.1912 17.92 93.5645 17.92H94.3645V20H92.6845C92.1912 20 91.7845 19.88 91.4645 19.64C91.1445 19.4 90.9845 19.08 90.9845 18.68V18.66H90.6045C90.5512 18.82 90.4312 19.0333 90.2445 19.3C90.0579 19.5533 89.7645 19.78 89.3645 19.98C88.9645 20.18 88.4179 20.28 87.7245 20.28ZM88.1645 18.24C88.8712 18.24 89.4445 18.0467 89.8845 17.66C90.3379 17.26 90.5645 16.7333 90.5645 16.08V15.88H88.0245C87.5579 15.88 87.1912 15.98 86.9245 16.18C86.6579 16.38 86.5245 16.66 86.5245 17.02C86.5245 17.38 86.6645 17.6733 86.9445 17.9C87.2245 18.1267 87.6312 18.24 88.1645 18.24ZM95.807 20V6H98.327V20H95.807ZM100.72 20V6H103.24V20H100.72ZM106.712 24V21.8H112.112C112.485 21.8 112.672 21.6 112.672 21.2V18.7H112.312C112.205 18.9267 112.039 19.1533 111.812 19.38C111.585 19.6067 111.279 19.7933 110.892 19.94C110.505 20.0867 110.012 20.16 109.412 20.16C108.639 20.16 107.959 19.9867 107.372 19.64C106.799 19.28 106.352 18.7867 106.032 18.16C105.712 17.5333 105.552 16.8133 105.552 16V10.08H108.072V15.8C108.072 16.5467 108.252 17.1067 108.612 17.48C108.985 17.8533 109.512 18.04 110.192 18.04C110.965 18.04 111.565 17.7867 111.992 17.28C112.419 16.76 112.632 16.04 112.632 15.12V10.08H115.152V21.76C115.152 22.44 114.952 22.98 114.552 23.38C114.152 23.7933 113.619 24 112.952 24H106.712Z" fill="white"/>
</svg>
